<?xml version="1.0" encoding="utf-8"?>
<svg version="1.1" xmlns:xlink="http://www.w3.org/1999/xlink" width="13px" height="13px" viewBox="558 741.5 13 13" xmlns="http://www.w3.org/2000/svg">
  <path d="M 564.5 741.5  C 568.14 741.5  571 744.36  571 748  C 571 751.64  568.14 754.5  564.5 754.5  C 560.86 754.5  558 751.64  558 748  C 558 744.36  560.86 741.5  564.5 741.5  Z " fill-rule="nonzero" fill="rgba(255, 255, 255, 0)" stroke="none" class="fill" />
  <path d="M 564.5 742  C 567.86 742  570.5 744.64  570.5 748  C 570.5 751.36  567.86 754  564.5 754  C 561.14 754  558.5 751.36  558.5 748  C 558.5 744.64  561.14 742  564.5 742  Z " stroke-width="1" stroke-dasharray="0" stroke="rgba(24, 144, 255, 1)" fill="none" class="stroke" stroke-dashoffset="0.5" />
  <path d="M 564.5 751.25  C 562.68 751.25  561.25 749.82  561.25 748  C 561.25 746.18  562.68 744.75  564.5 744.75  C 566.32 744.75  567.75 746.18  567.75 748  C 567.75 749.82  566.32 751.25  564.5 751.25  " fill-rule="nonzero" fill="rgba(24, 144, 255, 1)" stroke="none" class="stroke btn_check" />
</svg>