<?xml version="1.0" encoding="utf-8"?>
<svg version="1.1" xmlns:xlink="http://www.w3.org/1999/xlink" width="13px" height="13px" viewBox="653 741.5 13 13" xmlns="http://www.w3.org/2000/svg">
  <path d="M 659.5 741.5  C 663.14 741.5  666 744.36  666 748  C 666 751.64  663.14 754.5  659.5 754.5  C 655.86 754.5  653 751.64  653 748  C 653 744.36  655.86 741.5  659.5 741.5  Z " fill-rule="nonzero" fill="rgba(240, 240, 240, 1)" stroke="none" class="fill" />
  <path d="M 659.5 742  C 662.86 742  665.5 744.64  665.5 748  C 665.5 751.36  662.86 754  659.5 754  C 656.14 754  653.5 751.36  653.5 748  C 653.5 744.64  656.14 742  659.5 742  Z " stroke-width="1" stroke-dasharray="0" stroke="rgba(24, 144, 255, 1)" fill="none" class="stroke" stroke-dashoffset="0.5" />
  <path d="M 659.5 751.25  C 657.68 751.25  656.25 749.82  656.25 748  C 656.25 746.18  657.68 744.75  659.5 744.75  C 661.32 744.75  662.75 746.18  662.75 748  C 662.75 749.82  661.32 751.25  659.5 751.25  " fill-rule="nonzero" fill="rgba(24, 144, 255, 1)" stroke="none" class="stroke btn_check" />
</svg>