<svg class="icon" viewBox="0 0 1024 1024" version="1.1" xmlns="http://www.w3.org/2000/svg" p-id="1485" height="128" width="128"><path d="M449.1 732.9c-77.8 0-151-30.3-206-85.3s-85.3-128.2-85.3-206 30.3-151 85.3-206 128.2-85.3 206-85.3c77.8 0 151 30.3 206 85.3s85.3 128.2 85.3 206-30.3 151-85.3 206-128.2 85.3-206 85.3z m0-532.7c-133.1 0-241.4 108.3-241.4 241.4S316 682.9 449.1 682.9c133.1 0 241.4-108.3 241.4-241.4S582.2 200.2 449.1 200.2zM609.135 636.88l35.355-35.355L875.853 832.89l-35.355 35.355z" p-id="1486"></path></svg>