<?xml version="1.0" encoding="utf-8"?>
<svg version="1.1" xmlns:xlink="http://www.w3.org/1999/xlink" width="13px" height="13px" viewBox="1370 593.5 13 13" xmlns="http://www.w3.org/2000/svg">
  <path d="M 1376.5 593.5  C 1380.14 593.5  1383 596.36  1383 600  C 1383 603.64  1380.14 606.5  1376.5 606.5  C 1372.86 606.5  1370 603.64  1370 600  C 1370 596.36  1372.86 593.5  1376.5 593.5  Z " fill-rule="nonzero" fill="rgba(255, 255, 255, 0)" stroke="none" class="fill" />
  <path d="M 1376.5 594  C 1379.86 594  1382.5 596.64  1382.5 600  C 1382.5 603.36  1379.86 606  1376.5 606  C 1373.14 606  1370.5 603.36  1370.5 600  C 1370.5 596.64  1373.14 594  1376.5 594  Z " stroke-width="1" stroke-dasharray="0" stroke="rgba(16, 142, 233, 1)" fill="none" class="stroke" stroke-dashoffset="0.5" />
  <path d="M 1376.5 603.25  C 1374.68 603.25  1373.25 601.82  1373.25 600  C 1373.25 598.18  1374.68 596.75  1376.5 596.75  C 1378.32 596.75  1379.75 598.18  1379.75 600  C 1379.75 601.82  1378.32 603.25  1376.5 603.25  " fill-rule="nonzero" fill="rgba(16, 142, 233, 1)" stroke="none" class="stroke btn_check" />
</svg>