<?xml version="1.0" encoding="utf-8"?>
<svg version="1.1" xmlns:xlink="http://www.w3.org/1999/xlink" width="13px" height="13px" viewBox="1438 557.5 13 13" xmlns="http://www.w3.org/2000/svg">
  <path d="M 1444.5 557.5  C 1448.14 557.5  1451 560.36  1451 564  C 1451 567.64  1448.14 570.5  1444.5 570.5  C 1440.86 570.5  1438 567.64  1438 564  C 1438 560.36  1440.86 557.5  1444.5 557.5  Z " fill-rule="nonzero" fill="rgba(240, 240, 240, 1)" stroke="none" class="fill" />
  <path d="M 1444.5 558  C 1447.86 558  1450.5 560.64  1450.5 564  C 1450.5 567.36  1447.86 570  1444.5 570  C 1441.14 570  1438.5 567.36  1438.5 564  C 1438.5 560.64  1441.14 558  1444.5 558  Z " stroke-width="1" stroke-dasharray="0" stroke="rgba(16, 142, 233, 1)" fill="none" class="stroke" stroke-dashoffset="0.5" />
  <path d="M 1444.5 567.25  C 1442.68 567.25  1441.25 565.82  1441.25 564  C 1441.25 562.18  1442.68 560.75  1444.5 560.75  C 1446.32 560.75  1447.75 562.18  1447.75 564  C 1447.75 565.82  1446.32 567.25  1444.5 567.25  " fill-rule="nonzero" fill="rgba(16, 142, 233, 1)" stroke="none" class="stroke btn_check" />
</svg>