<?xml version="1.0" encoding="utf-8"?>
<svg version="1.1" xmlns:xlink="http://www.w3.org/1999/xlink" width="13px" height="13px" viewBox="103 72.5 13 13" xmlns="http://www.w3.org/2000/svg">
  <path d="M 109.5 72.5  C 113.14 72.5  116 75.36  116 79  C 116 82.64  113.14 85.5  109.5 85.5  C 105.86 85.5  103 82.64  103 79  C 103 75.36  105.86 72.5  109.5 72.5  Z " fill-rule="nonzero" fill="rgba(255, 255, 255, 0)" stroke="none" class="fill" />
  <path d="M 109.5 73  C 112.86 73  115.5 75.64  115.5 79  C 115.5 82.36  112.86 85  109.5 85  C 106.14 85  103.5 82.36  103.5 79  C 103.5 75.64  106.14 73  109.5 73  Z " stroke-width="1" stroke-dasharray="0" stroke="rgba(2, 167, 240, 1)" fill="none" class="stroke" stroke-dashoffset="0.5" />
  <path d="M 109.5 82.25  C 107.68 82.25  106.25 80.82  106.25 79  C 106.25 77.18  107.68 75.75  109.5 75.75  C 111.32 75.75  112.75 77.18  112.75 79  C 112.75 80.82  111.32 82.25  109.5 82.25  " fill-rule="nonzero" fill="rgba(2, 167, 240, 1)" stroke="none" class="stroke btn_check" />
</svg>