<?xml version="1.0" encoding="utf-8"?>
<svg version="1.1" xmlns:xlink="http://www.w3.org/1999/xlink" width="13px" height="13px" viewBox="134 113.5 13 13" xmlns="http://www.w3.org/2000/svg">
  <path d="M 140.5 113.5  C 144.14 113.5  147 116.36  147 120  C 147 123.64  144.14 126.5  140.5 126.5  C 136.86 126.5  134 123.64  134 120  C 134 116.36  136.86 113.5  140.5 113.5  Z " fill-rule="nonzero" fill="rgba(255, 255, 255, 0)" stroke="none" class="fill" />
  <path d="M 140.5 114  C 143.86 114  146.5 116.64  146.5 120  C 146.5 123.36  143.86 126  140.5 126  C 137.14 126  134.5 123.36  134.5 120  C 134.5 116.64  137.14 114  140.5 114  Z " stroke-width="1" stroke-dasharray="0" stroke="rgba(2, 167, 240, 1)" fill="none" class="stroke" stroke-dashoffset="0.5" />
  <path d="M 140.5 123.25  C 138.68 123.25  137.25 121.82  137.25 120  C 137.25 118.18  138.68 116.75  140.5 116.75  C 142.32 116.75  143.75 118.18  143.75 120  C 143.75 121.82  142.32 123.25  140.5 123.25  " fill-rule="nonzero" fill="rgba(2, 167, 240, 1)" stroke="none" class="stroke btn_check" />
</svg>