<svg class="icon" viewBox="0 0 1935 1024" version="1.1" xmlns="http://www.w3.org/2000/svg" p-id="1672" height="128" width="128"><path d="M229.03 363.159C71.383 232.583 9.394 95.865 4.617 84.832c-12.057-30.255 0-66.539 30.369-78.482 30.142-12.17 66.425 0 78.482 30.142 9.1 18.199 208.717 447.46 852.724 447.46 644.12 0 843.624-429.375 852.724-447.46a57.553 57.553 0 0 1 78.595-30.256 57.553 57.553 0 0 1 30.256 78.596c-4.664 10.92-66.767 147.865-224.3 278.327l109.42 301.644c12.057 30.141-6.028 66.425-36.397 78.482-6.028 0-15.014 3.07-21.042 3.07a61.99 61.99 0 0 1-57.44-39.24l-97.818-269.341a1065.08 1065.08 0 0 1-344.98 137.855l55.734 301.416a59.032 59.032 0 0 1-48.454 69.61h-12.057a61.42 61.42 0 0 1-60.51-51.411l-53.346-300.051c-53.458 6.255-110.216 9.781-170.385 9.781-59.942 0-116.472-3.412-169.817-9.668l-53.914 302.895a64.492 64.492 0 0 1-60.51 48.454h-9.1a59.032 59.032 0 0 1-48.34-69.61l53.686-301.189a1065.421 1065.421 0 0 1-346.003-138.082l-97.705 269.34a61.99 61.99 0 0 1-57.44 39.242c-6.028 0-15.127 0-21.155-2.958a61.648 61.648 0 0 1-36.398-78.595L229.03 363.159z" fill="#999999" p-id="1673"></path></svg>