<?xml version="1.0" encoding="utf-8"?>
<svg version="1.1" xmlns:xlink="http://www.w3.org/1999/xlink" width="13px" height="13px" viewBox="15 20.5 13 13" xmlns="http://www.w3.org/2000/svg">
  <path d="M 21.5 20.5  C 25.14 20.5  28 23.36  28 27  C 28 30.64  25.14 33.5  21.5 33.5  C 17.86 33.5  15 30.64  15 27  C 15 23.36  17.86 20.5  21.5 20.5  Z " fill-rule="nonzero" fill="rgba(255, 255, 255, 0)" stroke="none" class="fill" />
  <path d="M 21.5 21  C 24.86 21  27.5 23.64  27.5 27  C 27.5 30.36  24.86 33  21.5 33  C 18.14 33  15.5 30.36  15.5 27  C 15.5 23.64  18.14 21  21.5 21  Z " stroke-width="1" stroke-dasharray="0" stroke="rgba(16, 142, 233, 0.9098039215686274)" fill="none" class="stroke" stroke-dashoffset="0.5" />
  <path d="M 21.5 30.25  C 19.68 30.25  18.25 28.82  18.25 27  C 18.25 25.18  19.68 23.75  21.5 23.75  C 23.32 23.75  24.75 25.18  24.75 27  C 24.75 28.82  23.32 30.25  21.5 30.25  " fill-rule="nonzero" fill="rgba(16, 142, 233, 0.9098039215686274)" stroke="none" class="stroke btn_check" />
</svg>