<?xml version="1.0" encoding="utf-8"?>
<svg version="1.1" xmlns:xlink="http://www.w3.org/1999/xlink" width="13px" height="13px" viewBox="124 20.5 13 13" xmlns="http://www.w3.org/2000/svg">
  <path d="M 130.5 20.5  C 134.14 20.5  137 23.36  137 27  C 137 30.64  134.14 33.5  130.5 33.5  C 126.86 33.5  124 30.64  124 27  C 124 23.36  126.86 20.5  130.5 20.5  Z " fill-rule="nonzero" fill="rgba(255, 255, 255, 0)" stroke="none" class="fill" />
  <path d="M 130.5 21  C 133.86 21  136.5 23.64  136.5 27  C 136.5 30.36  133.86 33  130.5 33  C 127.14 33  124.5 30.36  124.5 27  C 124.5 23.64  127.14 21  130.5 21  Z " stroke-width="1" stroke-dasharray="0" stroke="rgba(16, 142, 233, 0.9098039215686274)" fill="none" class="stroke" stroke-dashoffset="0.5" />
  <path d="M 130.5 30.25  C 128.68 30.25  127.25 28.82  127.25 27  C 127.25 25.18  128.68 23.75  130.5 23.75  C 132.32 23.75  133.75 25.18  133.75 27  C 133.75 28.82  132.32 30.25  130.5 30.25  " fill-rule="nonzero" fill="rgba(16, 142, 233, 0.9098039215686274)" stroke="none" class="stroke btn_check" />
</svg>