<?xml version="1.0" encoding="utf-8"?>
<svg version="1.1" xmlns:xlink="http://www.w3.org/1999/xlink" width="13px" height="13px" viewBox="120 41.5 13 13" xmlns="http://www.w3.org/2000/svg">
  <path d="M 126.5 41.5  C 130.14 41.5  133 44.36  133 48  C 133 51.64  130.14 54.5  126.5 54.5  C 122.86 54.5  120 51.64  120 48  C 120 44.36  122.86 41.5  126.5 41.5  Z " fill-rule="nonzero" fill="rgba(240, 240, 240, 1)" stroke="none" class="fill" />
  <path d="M 126.5 42  C 129.86 42  132.5 44.64  132.5 48  C 132.5 51.36  129.86 54  126.5 54  C 123.14 54  120.5 51.36  120.5 48  C 120.5 44.64  123.14 42  126.5 42  Z " stroke-width="1" stroke-dasharray="0" stroke="rgba(16, 142, 233, 1)" fill="none" class="stroke" stroke-dashoffset="0.5" />
  <path d="M 126.5 51.25  C 124.68 51.25  123.25 49.82  123.25 48  C 123.25 46.18  124.68 44.75  126.5 44.75  C 128.32 44.75  129.75 46.18  129.75 48  C 129.75 49.82  128.32 51.25  126.5 51.25  " fill-rule="nonzero" fill="rgba(16, 142, 233, 1)" stroke="none" class="stroke btn_check" />
</svg>