<?xml version="1.0" encoding="utf-8"?>
<svg version="1.1" xmlns:xlink="http://www.w3.org/1999/xlink" width="13px" height="13px" viewBox="230 2.5 13 13" xmlns="http://www.w3.org/2000/svg">
  <path d="M 236.5 2.5  C 240.14 2.5  243 5.359999999999999  243 9  C 243 12.64  240.14 15.5  236.5 15.5  C 232.86 15.5  230 12.64  230 9  C 230 5.359999999999999  232.86 2.5  236.5 2.5  Z " fill-rule="nonzero" fill="rgba(255, 255, 255, 0)" stroke="none" class="fill" />
  <path d="M 236.5 3  C 239.86 3  242.5 5.64  242.5 9  C 242.5 12.36  239.86 15  236.5 15  C 233.14 15  230.5 12.36  230.5 9  C 230.5 5.64  233.14 3  236.5 3  Z " stroke-width="1" stroke-dasharray="0" stroke="rgba(16, 142, 233, 1)" fill="none" class="stroke" stroke-dashoffset="0.5" />
  <path d="M 236.5 12.25  C 234.68 12.25  233.25 10.82  233.25 9  C 233.25 7.18  234.68 5.75  236.5 5.75  C 238.32 5.75  239.75 7.18  239.75 9  C 239.75 10.82  238.32 12.25  236.5 12.25  " fill-rule="nonzero" fill="rgba(16, 142, 233, 1)" stroke="none" class="stroke btn_check" />
</svg>