<?xml version="1.0" encoding="utf-8"?>
<svg version="1.1" xmlns:xlink="http://www.w3.org/1999/xlink" width="13px" height="13px" viewBox="1573 286 13 13" xmlns="http://www.w3.org/2000/svg">
  <path d="M 1579.5 286  C 1583.14 286  1586 288.86  1586 292.5  C 1586 296.14  1583.14 299  1579.5 299  C 1575.86 299  1573 296.14  1573 292.5  C 1573 288.86  1575.86 286  1579.5 286  Z " fill-rule="nonzero" fill="rgba(240, 240, 240, 1)" stroke="none" class="fill" />
  <path d="M 1579.5 286.5  C 1582.86 286.5  1585.5 289.14  1585.5 292.5  C 1585.5 295.86  1582.86 298.5  1579.5 298.5  C 1576.14 298.5  1573.5 295.86  1573.5 292.5  C 1573.5 289.14  1576.14 286.5  1579.5 286.5  Z " stroke-width="1" stroke-dasharray="0" stroke="rgba(0, 121, 254, 1)" fill="none" class="stroke" stroke-dashoffset="0.5" />
  <path d="M 1579.5 295.75  C 1577.68 295.75  1576.25 294.32  1576.25 292.5  C 1576.25 290.68  1577.68 289.25  1579.5 289.25  C 1581.32 289.25  1582.75 290.68  1582.75 292.5  C 1582.75 294.32  1581.32 295.75  1579.5 295.75  " fill-rule="nonzero" fill="rgba(0, 121, 254, 1)" stroke="none" class="stroke btn_check" />
</svg>