<?xml version="1.0" encoding="utf-8"?>
<svg version="1.1" xmlns:xlink="http://www.w3.org/1999/xlink" width="13px" height="13px" viewBox="197 4.5 13 13" xmlns="http://www.w3.org/2000/svg">
  <path d="M 203.5 4.5  C 207.14 4.5  210 7.359999999999999  210 11  C 210 14.64  207.14 17.5  203.5 17.5  C 199.86 17.5  197 14.64  197 11  C 197 7.359999999999999  199.86 4.5  203.5 4.5  Z " fill-rule="nonzero" fill="rgba(255, 255, 255, 0)" stroke="none" class="fill" />
  <path d="M 203.5 5  C 206.86 5  209.5 7.64  209.5 11  C 209.5 14.36  206.86 17  203.5 17  C 200.14 17  197.5 14.36  197.5 11  C 197.5 7.64  200.14 5  203.5 5  Z " stroke-width="1" stroke-dasharray="0" stroke="rgba(16, 142, 233, 1)" fill="none" class="stroke" stroke-dashoffset="0.5" />
  <path d="M 203.5 14.25  C 201.68 14.25  200.25 12.82  200.25 11  C 200.25 9.18  201.68 7.75  203.5 7.75  C 205.32 7.75  206.75 9.18  206.75 11  C 206.75 12.82  205.32 14.25  203.5 14.25  " fill-rule="nonzero" fill="rgba(16, 142, 233, 1)" stroke="none" class="stroke btn_check" />
</svg>