<svg class="icon" viewBox="0 0 1024 1024" version="1.1" xmlns="http://www.w3.org/2000/svg" p-id="1621" height="128" width="128"><path d="M621.714286 512 1002.057143 131.657143c29.257143-29.257143 29.257143-80.457143 0-109.714286-29.257143-29.257143-80.457143-29.257143-109.714286 0L512 402.285714 131.657143 21.942857c-29.257143-29.257143-80.457143-29.257143-109.714286 0-29.257143 29.257143-29.257143 80.457143 0 109.714286L402.285714 512 21.942857 892.342857c-29.257143 29.257143-29.257143 80.457143 0 109.714286 29.257143 29.257143 80.457143 29.257143 109.714286 0L512 621.714286l380.342857 380.342857c29.257143 29.257143 80.457143 29.257143 109.714286 0 29.257143-29.257143 29.257143-80.457143 0-109.714286L621.714286 512z" p-id="1622"></path></svg>