<?xml version="1.0" encoding="utf-8"?>
<svg version="1.1" xmlns:xlink="http://www.w3.org/1999/xlink" width="13px" height="13px" viewBox="169 1241.5 13 13" xmlns="http://www.w3.org/2000/svg">
  <path d="M 175.5 1241.5  C 179.14 1241.5  182 1244.36  182 1248  C 182 1251.64  179.14 1254.5  175.5 1254.5  C 171.86 1254.5  169 1251.64  169 1248  C 169 1244.36  171.86 1241.5  175.5 1241.5  Z " fill-rule="nonzero" fill="rgba(255, 255, 255, 0)" stroke="none" class="fill" />
  <path d="M 175.5 1242  C 178.86 1242  181.5 1244.64  181.5 1248  C 181.5 1251.36  178.86 1254  175.5 1254  C 172.14 1254  169.5 1251.36  169.5 1248  C 169.5 1244.64  172.14 1242  175.5 1242  Z " stroke-width="1" stroke-dasharray="0" stroke="rgba(16, 142, 233, 0.9098039215686274)" fill="none" class="stroke" stroke-dashoffset="0.5" />
  <path d="M 175.5 1251.25  C 173.68 1251.25  172.25 1249.82  172.25 1248  C 172.25 1246.18  173.68 1244.75  175.5 1244.75  C 177.32 1244.75  178.75 1246.18  178.75 1248  C 178.75 1249.82  177.32 1251.25  175.5 1251.25  " fill-rule="nonzero" fill="rgba(16, 142, 233, 0.9098039215686274)" stroke="none" class="stroke btn_check" />
</svg>