<?xml version="1.0" encoding="utf-8"?>
<svg version="1.1" xmlns:xlink="http://www.w3.org/1999/xlink" width="13px" height="13px" viewBox="125 431.5 13 13" xmlns="http://www.w3.org/2000/svg">
  <path d="M 131.5 431.5  C 135.14 431.5  138 434.36  138 438  C 138 441.64  135.14 444.5  131.5 444.5  C 127.86 444.5  125 441.64  125 438  C 125 434.36  127.86 431.5  131.5 431.5  Z " fill-rule="nonzero" fill="rgba(240, 240, 240, 1)" stroke="none" class="fill" />
  <path d="M 131.5 432  C 134.86 432  137.5 434.64  137.5 438  C 137.5 441.36  134.86 444  131.5 444  C 128.14 444  125.5 441.36  125.5 438  C 125.5 434.64  128.14 432  131.5 432  Z " stroke-width="1" stroke-dasharray="0" stroke="rgba(16, 142, 233, 1)" fill="none" class="stroke" stroke-dashoffset="0.5" />
  <path d="M 131.5 441.25  C 129.68 441.25  128.25 439.82  128.25 438  C 128.25 436.18  129.68 434.75  131.5 434.75  C 133.32 434.75  134.75 436.18  134.75 438  C 134.75 439.82  133.32 441.25  131.5 441.25  " fill-rule="nonzero" fill="rgba(16, 142, 233, 1)" stroke="none" class="stroke btn_check" />
</svg>