<?xml version="1.0" encoding="utf-8"?>
<svg version="1.1" xmlns:xlink="http://www.w3.org/1999/xlink" width="13px" height="13px" viewBox="481 431.5 13 13" xmlns="http://www.w3.org/2000/svg">
  <path d="M 487.5 431.5  C 491.14 431.5  494 434.36  494 438  C 494 441.64  491.14 444.5  487.5 444.5  C 483.86 444.5  481 441.64  481 438  C 481 434.36  483.86 431.5  487.5 431.5  Z " fill-rule="nonzero" fill="rgba(255, 255, 255, 0)" stroke="none" class="fill" />
  <path d="M 487.5 432  C 490.86 432  493.5 434.64  493.5 438  C 493.5 441.36  490.86 444  487.5 444  C 484.14 444  481.5 441.36  481.5 438  C 481.5 434.64  484.14 432  487.5 432  Z " stroke-width="1" stroke-dasharray="0" stroke="rgba(16, 142, 233, 1)" fill="none" class="stroke" stroke-dashoffset="0.5" />
  <path d="M 487.5 441.25  C 485.68 441.25  484.25 439.82  484.25 438  C 484.25 436.18  485.68 434.75  487.5 434.75  C 489.32 434.75  490.75 436.18  490.75 438  C 490.75 439.82  489.32 441.25  487.5 441.25  " fill-rule="nonzero" fill="rgba(16, 142, 233, 1)" stroke="none" class="stroke btn_check" />
</svg>