<?xml version="1.0" encoding="utf-8"?>
<svg version="1.1" xmlns:xlink="http://www.w3.org/1999/xlink" width="13px" height="13px" viewBox="260 401.5 13 13" xmlns="http://www.w3.org/2000/svg">
  <path d="M 266.5 401.5  C 270.14 401.5  273 404.36  273 408  C 273 411.64  270.14 414.5  266.5 414.5  C 262.86 414.5  260 411.64  260 408  C 260 404.36  262.86 401.5  266.5 401.5  Z " fill-rule="nonzero" fill="rgba(255, 255, 255, 1)" stroke="none" class="fill" />
  <path d="M 266.5 402  C 269.86 402  272.5 404.64  272.5 408  C 272.5 411.36  269.86 414  266.5 414  C 263.14 414  260.5 411.36  260.5 408  C 260.5 404.64  263.14 402  266.5 402  Z " stroke-width="1" stroke-dasharray="0" stroke="rgba(2, 167, 240, 1)" fill="none" class="stroke" stroke-dashoffset="0.5" />
  <path d="M 266.5 411.25  C 264.68 411.25  263.25 409.82  263.25 408  C 263.25 406.18  264.68 404.75  266.5 404.75  C 268.32 404.75  269.75 406.18  269.75 408  C 269.75 409.82  268.32 411.25  266.5 411.25  " fill-rule="nonzero" fill="rgba(2, 167, 240, 1)" stroke="none" class="stroke btn_check" />
</svg>