<?xml version="1.0" encoding="utf-8"?>
<svg version="1.1" xmlns:xlink="http://www.w3.org/1999/xlink" width="143px" height="32px" xmlns="http://www.w3.org/2000/svg">
  <defs>
    <pattern id="BGPattern" patternUnits="userSpaceOnUse" alignment="0 0" imageRepeat="None" />
    <mask fill="white" id="Clip218">
      <path d="M 0 28  L 0 4  C 0 1.7599999999999998  1.7599999999999998 0  4 0  L 139 0  C 141.23999999999998 0  143 1.7599999999999998  143 4  L 143 28  C 143 30.240000000000002  141.23999999999998 32  139 32  L 4 32  C 1.7599999999999998 32  0 30.240000000000002  0 28  Z " fill-rule="evenodd" />
    </mask>
  </defs>
  <g transform="matrix(1 0 0 1 -122 -502 )">
    <path d="M 0 28  L 0 4  C 0 1.7599999999999998  1.7599999999999998 0  4 0  L 139 0  C 141.23999999999998 0  143 1.7599999999999998  143 4  L 143 28  C 143 30.240000000000002  141.23999999999998 32  139 32  L 4 32  C 1.7599999999999998 32  0 30.240000000000002  0 28  Z " fill-rule="nonzero" fill="rgba(0, 0, 0, 0.6470588235294118)" stroke="none" transform="matrix(1 0 0 1 122 502 )" class="fill" />
    <path d="M 0 28  L 0 4  C 0 1.7599999999999998  1.7599999999999998 0  4 0  L 139 0  C 141.23999999999998 0  143 1.7599999999999998  143 4  L 143 28  C 143 30.240000000000002  141.23999999999998 32  139 32  L 4 32  C 1.7599999999999998 32  0 30.240000000000002  0 28  Z " stroke-width="2" stroke-dasharray="0" stroke="rgba(255, 255, 255, 0)" fill="none" transform="matrix(1 0 0 1 122 502 )" class="stroke" mask="url(#Clip218)" />
  </g>
</svg>