<?xml version="1.0" encoding="utf-8"?>
<svg version="1.1" xmlns:xlink="http://www.w3.org/1999/xlink" width="18px" height="14px" xmlns="http://www.w3.org/2000/svg">
  <defs>
    <pattern id="BGPattern" patternUnits="userSpaceOnUse" alignment="0 0" imageRepeat="None" />
    <mask fill="white" id="Clip62">
      <path d="M 0 7  C 0 3.0799999999999996  3.9599999999999995 0  9 0  C 14.040000000000001 0  18 3.0799999999999996  18 7  C 18 10.92  14.040000000000001 14  9 14  C 3.9599999999999995 14  0 10.92  0 7  Z " fill-rule="evenodd" />
    </mask>
  </defs>
  <g transform="matrix(1 0 0 1 -336 -85 )">
    <path d="M 0 7  C 0 3.0799999999999996  3.9599999999999995 0  9 0  C 14.040000000000001 0  18 3.0799999999999996  18 7  C 18 10.92  14.040000000000001 14  9 14  C 3.9599999999999995 14  0 10.92  0 7  Z " fill-rule="nonzero" fill="rgba(255, 255, 255, 1)" stroke="none" transform="matrix(1 0 0 1 336 85 )" class="fill" />
    <path d="M 0 7  C 0 3.0799999999999996  3.9599999999999995 0  9 0  C 14.040000000000001 0  18 3.0799999999999996  18 7  C 18 10.92  14.040000000000001 14  9 14  C 3.9599999999999995 14  0 10.92  0 7  Z " stroke-width="4" stroke-dasharray="0" stroke="rgba(145, 213, 255, 1)" fill="none" transform="matrix(1 0 0 1 336 85 )" class="stroke" mask="url(#Clip62)" />
  </g>
</svg>