<?xml version="1.0" encoding="utf-8"?>
<svg version="1.1" xmlns:xlink="http://www.w3.org/1999/xlink" width="13px" height="13px" viewBox="161 1134.5 13 13" xmlns="http://www.w3.org/2000/svg">
  <path d="M 167.5 1134.5  C 171.14 1134.5  174 1137.36  174 1141  C 174 1144.64  171.14 1147.5  167.5 1147.5  C 163.86 1147.5  161 1144.64  161 1141  C 161 1137.36  163.86 1134.5  167.5 1134.5  Z " fill-rule="nonzero" fill="rgba(240, 240, 240, 1)" stroke="none" class="fill" />
  <path d="M 167.5 1135  C 170.86 1135  173.5 1137.64  173.5 1141  C 173.5 1144.36  170.86 1147  167.5 1147  C 164.14 1147  161.5 1144.36  161.5 1141  C 161.5 1137.64  164.14 1135  167.5 1135  Z " stroke-width="1" stroke-dasharray="0" stroke="rgba(16, 142, 233, 0.9098039215686274)" fill="none" class="stroke" stroke-dashoffset="0.5" />
  <path d="M 167.5 1144.25  C 165.68 1144.25  164.25 1142.82  164.25 1141  C 164.25 1139.18  165.68 1137.75  167.5 1137.75  C 169.32 1137.75  170.75 1139.18  170.75 1141  C 170.75 1142.82  169.32 1144.25  167.5 1144.25  " fill-rule="nonzero" fill="rgba(16, 142, 233, 0.9098039215686274)" stroke="none" class="stroke btn_check" />
</svg>