<?xml version="1.0" encoding="utf-8"?>
<svg version="1.1" xmlns:xlink="http://www.w3.org/1999/xlink" width="13px" height="13px" viewBox="258 1134.5 13 13" xmlns="http://www.w3.org/2000/svg">
  <path d="M 264.5 1134.5  C 268.14 1134.5  271 1137.36  271 1141  C 271 1144.64  268.14 1147.5  264.5 1147.5  C 260.86 1147.5  258 1144.64  258 1141  C 258 1137.36  260.86 1134.5  264.5 1134.5  Z " fill-rule="nonzero" fill="rgba(255, 255, 255, 0)" stroke="none" class="fill" />
  <path d="M 264.5 1135  C 267.86 1135  270.5 1137.64  270.5 1141  C 270.5 1144.36  267.86 1147  264.5 1147  C 261.14 1147  258.5 1144.36  258.5 1141  C 258.5 1137.64  261.14 1135  264.5 1135  Z " stroke-width="1" stroke-dasharray="0" stroke="rgba(16, 142, 233, 0.9098039215686274)" fill="none" class="stroke" stroke-dashoffset="0.5" />
  <path d="M 264.5 1144.25  C 262.68 1144.25  261.25 1142.82  261.25 1141  C 261.25 1139.18  262.68 1137.75  264.5 1137.75  C 266.32 1137.75  267.75 1139.18  267.75 1141  C 267.75 1142.82  266.32 1144.25  264.5 1144.25  " fill-rule="nonzero" fill="rgba(16, 142, 233, 0.9098039215686274)" stroke="none" class="stroke btn_check" />
</svg>