<?xml version="1.0" encoding="utf-8"?>
<svg version="1.1" xmlns:xlink="http://www.w3.org/1999/xlink" width="6px" height="12px" xmlns="http://www.w3.org/2000/svg">
  <defs>
    <pattern id="BGPattern" patternUnits="userSpaceOnUse" alignment="0 0" imageRepeat="None" />
    <mask fill="white" id="Clip33">
      <path d="M 0.17647058823530415 0.22499999999999432  C 0.17647058823530415 0.07500000000000284  0.31764705882352473 0.07500000000000284  0.388235294117635 0.07500000000000284  C 0.45882352941177373 0.07500000000000284  0.5999999999999943 0.07500000000000284  0.6705882352941046 0.15000000000000568  L 5.894117647058835 5.700000000000003  C 5.964705882352945 5.775000000000006  5.964705882352945 5.849999999999994  5.964705882352945 6  C 5.964705882352945 6.075000000000003  5.894117647058835 6.224999999999994  5.894117647058835 6.299999999999997  L 0.6705882352941046 11.849999999999994  C 0.529411764705884 12  0.31764705882352473 12  0.17647058823530415 11.849999999999994  C 0.035294117647055145 11.700000000000003  0.035294117647055145 11.474999999999994  0.17647058823530415 11.325000000000003  L 5.117647058823536 6  L 0.17647058823530415 0.75  C 0.035294117647055145 0.5999999999999943  0.035294117647055145 0.375  0.17647058823530415 0.22499999999999432  Z " fill-rule="evenodd" />
    </mask>
  </defs>
  <g transform="matrix(1 0 0 1 -50 -201 )">
    <path d="M 0.17647058823530415 0.22499999999999432  C 0.17647058823530415 0.07500000000000284  0.31764705882352473 0.07500000000000284  0.388235294117635 0.07500000000000284  C 0.45882352941177373 0.07500000000000284  0.5999999999999943 0.07500000000000284  0.6705882352941046 0.15000000000000568  L 5.894117647058835 5.700000000000003  C 5.964705882352945 5.775000000000006  5.964705882352945 5.849999999999994  5.964705882352945 6  C 5.964705882352945 6.075000000000003  5.894117647058835 6.224999999999994  5.894117647058835 6.299999999999997  L 0.6705882352941046 11.849999999999994  C 0.529411764705884 12  0.31764705882352473 12  0.17647058823530415 11.849999999999994  C 0.035294117647055145 11.700000000000003  0.035294117647055145 11.474999999999994  0.17647058823530415 11.325000000000003  L 5.117647058823536 6  L 0.17647058823530415 0.75  C 0.035294117647055145 0.5999999999999943  0.035294117647055145 0.375  0.17647058823530415 0.22499999999999432  Z " fill-rule="nonzero" fill="rgba(201, 201, 201, 1)" stroke="none" transform="matrix(1 0 0 1 50 201 )" class="fill" />
    <path d="M 0.17647058823530415 0.22499999999999432  C 0.17647058823530415 0.07500000000000284  0.31764705882352473 0.07500000000000284  0.388235294117635 0.07500000000000284  C 0.45882352941177373 0.07500000000000284  0.5999999999999943 0.07500000000000284  0.6705882352941046 0.15000000000000568  L 5.894117647058835 5.700000000000003  C 5.964705882352945 5.775000000000006  5.964705882352945 5.849999999999994  5.964705882352945 6  C 5.964705882352945 6.075000000000003  5.894117647058835 6.224999999999994  5.894117647058835 6.299999999999997  L 0.6705882352941046 11.849999999999994  C 0.529411764705884 12  0.31764705882352473 12  0.17647058823530415 11.849999999999994  C 0.035294117647055145 11.700000000000003  0.035294117647055145 11.474999999999994  0.17647058823530415 11.325000000000003  L 5.117647058823536 6  L 0.17647058823530415 0.75  C 0.035294117647055145 0.5999999999999943  0.035294117647055145 0.375  0.17647058823530415 0.22499999999999432  Z " stroke-width="0" stroke-dasharray="0" stroke="rgba(255, 255, 255, 0)" fill="none" transform="matrix(1 0 0 1 50 201 )" class="stroke" mask="url(#Clip33)" />
  </g>
</svg>