<?xml version="1.0" encoding="utf-8"?>
<svg version="1.1" xmlns:xlink="http://www.w3.org/1999/xlink" width="13px" height="13px" viewBox="26 257 13 13" xmlns="http://www.w3.org/2000/svg">
  <path d="M 26 258  A 1 1 0 0 1 27 257 L 38 257  A 1 1 0 0 1 39 258 L 39 269  A 1 1 0 0 1 38 270 L 27 270  A 1 1 0 0 1 26 269 L 26 258  Z " fill-rule="nonzero" fill="rgba(240, 240, 240, 1)" stroke="none" class="fill" />
  <path d="M 26.5 258  A 0.5 0.5 0 0 1 27 257.5 L 38 257.5  A 0.5 0.5 0 0 1 38.5 258 L 38.5 269  A 0.5 0.5 0 0 1 38 269.5 L 27 269.5  A 0.5 0.5 0 0 1 26.5 269 L 26.5 258  Z " stroke-width="1" stroke-dasharray="0" stroke="rgba(215, 215, 215, 1)" fill="none" class="stroke" stroke-dashoffset="0.5" />
</svg>