<?xml version="1.0" encoding="utf-8"?>
<svg version="1.1" xmlns:xlink="http://www.w3.org/1999/xlink" width="13px" height="13px" viewBox="26 360 13 13" xmlns="http://www.w3.org/2000/svg">
  <path d="M 26 361  A 1 1 0 0 1 27 360 L 38 360  A 1 1 0 0 1 39 361 L 39 372  A 1 1 0 0 1 38 373 L 27 373  A 1 1 0 0 1 26 372 L 26 361  Z " fill-rule="nonzero" fill="rgba(240, 240, 240, 1)" stroke="none" class="fill" />
  <path d="M 26.5 361  A 0.5 0.5 0 0 1 27 360.5 L 38 360.5  A 0.5 0.5 0 0 1 38.5 361 L 38.5 372  A 0.5 0.5 0 0 1 38 372.5 L 27 372.5  A 0.5 0.5 0 0 1 26.5 372 L 26.5 361  Z " stroke-width="1" stroke-dasharray="0" stroke="rgba(215, 215, 215, 1)" fill="none" class="stroke" stroke-dashoffset="0.5" />
</svg>