<?xml version="1.0" encoding="utf-8"?>
<svg version="1.1" xmlns:xlink="http://www.w3.org/1999/xlink" width="13px" height="13px" viewBox="26 514 13 13" xmlns="http://www.w3.org/2000/svg">
  <path d="M 26 515  A 1 1 0 0 1 27 514 L 38 514  A 1 1 0 0 1 39 515 L 39 526  A 1 1 0 0 1 38 527 L 27 527  A 1 1 0 0 1 26 526 L 26 515  Z " fill-rule="nonzero" fill="rgba(255, 255, 255, 0)" stroke="none" class="fill" />
  <path d="M 26.5 515  A 0.5 0.5 0 0 1 27 514.5 L 38 514.5  A 0.5 0.5 0 0 1 38.5 515 L 38.5 526  A 0.5 0.5 0 0 1 38 526.5 L 27 526.5  A 0.5 0.5 0 0 1 26.5 526 L 26.5 515  Z " stroke-width="1" stroke-dasharray="0" stroke="rgba(215, 215, 215, 1)" fill="none" class="stroke" stroke-dashoffset="0.5" />
  <path d="M 28.785714285714285 520.5  L 31.571428571428573 523.2857142857142  L 36.214285714285715 516.7857142857143  " stroke-width="2.7857142857142856" stroke-dasharray="0" stroke="rgba(215, 215, 215, 1)" fill="none" class="stroke btn_check" />
</svg>