<?xml version="1.0" encoding="utf-8"?>
<svg version="1.1" xmlns:xlink="http://www.w3.org/1999/xlink" width="196px" height="60px" xmlns="http://www.w3.org/2000/svg">
  <defs>
    <pattern id="BGPattern" patternUnits="userSpaceOnUse" alignment="0 0" imageRepeat="None" />
    <mask fill="white" id="Clip254">
      <path d="M 0 9  L 9 0  L 187 0  L 196 9  L 196 51  L 187 60  L 9 60  L 0 51  L 0 9  Z " fill-rule="evenodd" />
    </mask>
  </defs>
  <g transform="matrix(1 0 0 1 -198 -495 )">
    <path d="M 0 9  L 9 0  L 187 0  L 196 9  L 196 51  L 187 60  L 9 60  L 0 51  L 0 9  Z " fill-rule="nonzero" fill="rgba(255, 255, 255, 1)" stroke="none" transform="matrix(1 0 0 1 198 495 )" class="fill" />
    <path d="M 0 9  L 9 0  L 187 0  L 196 9  L 196 51  L 187 60  L 9 60  L 0 51  L 0 9  Z " stroke-width="2" stroke-dasharray="0" stroke="rgba(121, 121, 121, 1)" fill="none" transform="matrix(1 0 0 1 198 495 )" class="stroke" mask="url(#Clip254)" />
  </g>
</svg>