<?xml version="1.0" encoding="utf-8"?>
<svg version="1.1" xmlns:xlink="http://www.w3.org/1999/xlink" width="80px" height="86px" xmlns="http://www.w3.org/2000/svg">
  <defs>
    <pattern id="BGPattern" patternUnits="userSpaceOnUse" alignment="0 0" imageRepeat="None" />
    <mask fill="white" id="Clip256">
      <path d="M 0 12  L 12 0  L 68 0  L 80 12  L 80 74  L 68 86  L 12 86  L 0 74  L 0 12  Z " fill-rule="evenodd" />
    </mask>
  </defs>
  <g transform="matrix(1 0 0 1 -92 -773 )">
    <path d="M 0 12  L 12 0  L 68 0  L 80 12  L 80 74  L 68 86  L 12 86  L 0 74  L 0 12  Z " fill-rule="nonzero" fill="rgba(255, 255, 255, 1)" stroke="none" transform="matrix(1 0 0 1 92 773 )" class="fill" />
    <path d="M 0 12  L 12 0  L 68 0  L 80 12  L 80 74  L 68 86  L 12 86  L 0 74  L 0 12  Z " stroke-width="2" stroke-dasharray="0" stroke="rgba(121, 121, 121, 1)" fill="none" transform="matrix(1 0 0 1 92 773 )" class="stroke" mask="url(#Clip256)" />
  </g>
</svg>