<?xml version="1.0" encoding="utf-8"?>
<svg version="1.1" xmlns:xlink="http://www.w3.org/1999/xlink" width="436px" height="158px" xmlns="http://www.w3.org/2000/svg">
  <defs>
    <pattern id="BGPattern" patternUnits="userSpaceOnUse" alignment="0 0" imageRepeat="None" />
    <mask fill="white" id="Clip255">
      <path d="M 10 158  L 436 158  L 436 10  L 431 10  L 431 5  L 426 5  L 426 0  L 0 0  L 0 148  L 5 148  L 5 153  L 10 153  L 10 158  Z " fill-rule="evenodd" />
    </mask>
  </defs>
  <g transform="matrix(1 0 0 1 -198 -574 )">
    <path d="M 10 158  L 436 158  L 436 10  L 431 10  L 431 5  L 426 5  L 426 0  L 0 0  L 0 148  L 5 148  L 5 153  L 10 153  L 10 158  Z M 430.5 11.000000000000002  L 11 152.5  L 430.5 152.5  L 430.5 11.000000000000002  Z M 425.5 6  L 6 147.5  L 425.5 147.5  L 425.5 6  Z " fill-rule="nonzero" fill="rgba(255, 255, 255, 1)" stroke="none" transform="matrix(1 0 0 1 198 574 )" class="fill" />
    <path d="M 10 158  L 436 158  L 436 10  L 431 10  L 431 5  L 426 5  L 426 0  L 0 0  L 0 148  L 5 148  L 5 153  L 10 153  L 10 158  Z " stroke-width="2" stroke-dasharray="0" stroke="rgba(121, 121, 121, 1)" fill="none" transform="matrix(1 0 0 1 198 574 )" class="stroke" mask="url(#Clip255)" />
    <path d="M 11 152.5  L 430.5 152.5  L 430.5 11.000000000000002  M 6 147.5  L 425.5 147.5  L 425.5 6  " stroke-width="1" stroke-dasharray="0" stroke="rgba(121, 121, 121, 1)" fill="none" transform="matrix(1 0 0 1 198 574 )" class="stroke" />
  </g>
</svg>