<?xml version="1.0" encoding="utf-8"?>
<svg version="1.1" xmlns:xlink="http://www.w3.org/1999/xlink" width="412px" height="68px" xmlns="http://www.w3.org/2000/svg">
  <defs>
    <pattern id="BGPattern" patternUnits="userSpaceOnUse" alignment="0 0" imageRepeat="None" />
    <mask fill="white" id="Clip261">
      <path d="M 0 10.2  L 10.2 0  L 401.8 0  L 412 10.2  L 412 57.8  L 401.8 68  L 10.2 68  L 0 57.8  L 0 10.2  Z " fill-rule="evenodd" />
    </mask>
  </defs>
  <g transform="matrix(1 0 0 1 -1356 -516 )">
    <path d="M 0 10.2  L 10.2 0  L 401.8 0  L 412 10.2  L 412 57.8  L 401.8 68  L 10.2 68  L 0 57.8  L 0 10.2  Z " fill-rule="nonzero" fill="rgba(255, 255, 255, 1)" stroke="none" transform="matrix(1 0 0 1 1356 516 )" class="fill" />
    <path d="M 0 10.2  L 10.2 0  L 401.8 0  L 412 10.2  L 412 57.8  L 401.8 68  L 10.2 68  L 0 57.8  L 0 10.2  Z " stroke-width="2" stroke-dasharray="0" stroke="rgba(121, 121, 121, 1)" fill="none" transform="matrix(1 0 0 1 1356 516 )" class="stroke" mask="url(#Clip261)" />
  </g>
</svg>