<?xml version="1.0" encoding="utf-8"?>
<svg version="1.1" xmlns:xlink="http://www.w3.org/1999/xlink" width="407px" height="60px" xmlns="http://www.w3.org/2000/svg">
  <defs>
    <pattern id="BGPattern" patternUnits="userSpaceOnUse" alignment="0 0" imageRepeat="None" />
    <mask fill="white" id="Clip264">
      <path d="M 0 9  L 9 0  L 398 0  L 407 9  L 407 51  L 398 60  L 9 60  L 0 51  L 0 9  Z " fill-rule="evenodd" />
    </mask>
  </defs>
  <g transform="matrix(1 0 0 1 -778 -478 )">
    <path d="M 0 9  L 9 0  L 398 0  L 407 9  L 407 51  L 398 60  L 9 60  L 0 51  L 0 9  Z " fill-rule="nonzero" fill="rgba(255, 255, 255, 1)" stroke="none" transform="matrix(1 0 0 1 778 478 )" class="fill" />
    <path d="M 0 9  L 9 0  L 398 0  L 407 9  L 407 51  L 398 60  L 9 60  L 0 51  L 0 9  Z " stroke-width="2" stroke-dasharray="0" stroke="rgba(121, 121, 121, 1)" fill="none" transform="matrix(1 0 0 1 778 478 )" class="stroke" mask="url(#Clip264)" />
  </g>
</svg>