<?xml version="1.0" encoding="utf-8"?>
<svg version="1.1" xmlns:xlink="http://www.w3.org/1999/xlink" width="13px" height="13px" viewBox="862 538.5 13 13" xmlns="http://www.w3.org/2000/svg">
  <path d="M 868.5 538.5  C 872.14 538.5  875 541.36  875 545  C 875 548.64  872.14 551.5  868.5 551.5  C 864.86 551.5  862 548.64  862 545  C 862 541.36  864.86 538.5  868.5 538.5  Z " fill-rule="nonzero" fill="rgba(240, 240, 240, 1)" stroke="none" class="fill" />
  <path d="M 868.5 539  C 871.86 539  874.5 541.64  874.5 545  C 874.5 548.36  871.86 551  868.5 551  C 865.14 551  862.5 548.36  862.5 545  C 862.5 541.64  865.14 539  868.5 539  Z " stroke-width="1" stroke-dasharray="0" stroke="rgba(16, 142, 233, 1)" fill="none" class="stroke" stroke-dashoffset="0.5" />
  <path d="M 868.5 548.25  C 866.68 548.25  865.25 546.82  865.25 545  C 865.25 543.18  866.68 541.75  868.5 541.75  C 870.32 541.75  871.75 543.18  871.75 545  C 871.75 546.82  870.32 548.25  868.5 548.25  " fill-rule="nonzero" fill="rgba(16, 142, 233, 1)" stroke="none" class="stroke btn_check" />
</svg>