<?xml version="1.0" encoding="utf-8"?>
<svg version="1.1" xmlns:xlink="http://www.w3.org/1999/xlink" width="13px" height="13px" viewBox="258 930.5 13 13" xmlns="http://www.w3.org/2000/svg">
  <path d="M 264.5 930.5  C 268.14 930.5  271 933.36  271 937  C 271 940.64  268.14 943.5  264.5 943.5  C 260.86 943.5  258 940.64  258 937  C 258 933.36  260.86 930.5  264.5 930.5  Z " fill-rule="nonzero" fill="rgba(255, 255, 255, 0)" stroke="none" class="fill" />
  <path d="M 264.5 931  C 267.86 931  270.5 933.64  270.5 937  C 270.5 940.36  267.86 943  264.5 943  C 261.14 943  258.5 940.36  258.5 937  C 258.5 933.64  261.14 931  264.5 931  Z " stroke-width="1" stroke-dasharray="0" stroke="rgba(16, 142, 233, 0.9098039215686274)" fill="none" class="stroke" stroke-dashoffset="0.5" />
  <path d="M 264.5 940.25  C 262.68 940.25  261.25 938.82  261.25 937  C 261.25 935.18  262.68 933.75  264.5 933.75  C 266.32 933.75  267.75 935.18  267.75 937  C 267.75 938.82  266.32 940.25  264.5 940.25  " fill-rule="nonzero" fill="rgba(16, 142, 233, 0.9098039215686274)" stroke="none" class="stroke btn_check" />
</svg>