<?xml version="1.0" encoding="utf-8"?>
<svg version="1.1" xmlns:xlink="http://www.w3.org/1999/xlink" width="100px" height="60px" xmlns="http://www.w3.org/2000/svg">
  <defs>
    <pattern id="BGPattern" patternUnits="userSpaceOnUse" alignment="0 0" imageRepeat="None" />
    <mask fill="white" id="Clip246">
      <path d="M 0 9  L 9 0  L 91 0  L 100 9  L 100 51  L 91 60  L 9 60  L 0 51  L 0 9  Z " fill-rule="evenodd" />
    </mask>
  </defs>
  <g transform="matrix(1 0 0 1 -534 -221 )">
    <path d="M 0 9  L 9 0  L 91 0  L 100 9  L 100 51  L 91 60  L 9 60  L 0 51  L 0 9  Z " fill-rule="nonzero" fill="rgba(217, 0, 27, 0.5333333333333333)" stroke="none" transform="matrix(1 0 0 1 534 221 )" class="fill" />
    <path d="M 0 9  L 9 0  L 91 0  L 100 9  L 100 51  L 91 60  L 9 60  L 0 51  L 0 9  Z " stroke-width="2" stroke-dasharray="0" stroke="rgba(121, 121, 121, 1)" fill="none" transform="matrix(1 0 0 1 534 221 )" class="stroke" mask="url(#Clip246)" />
  </g>
</svg>