<?xml version="1.0" encoding="utf-8"?>
<svg version="1.1" xmlns:xlink="http://www.w3.org/1999/xlink" width="1570px" height="86px" xmlns="http://www.w3.org/2000/svg">
  <defs>
    <pattern id="BGPattern" patternUnits="userSpaceOnUse" alignment="0 0" imageRepeat="None" />
    <mask fill="white" id="Clip257">
      <path d="M 0 12.9  L 12.899999999999999 0  L 1557.1000000000001 0  L 1570 12.9  L 1570 73.1  L 1557.1000000000001 86  L 12.899999999999999 86  L 0 73.1  L 0 12.9  Z " fill-rule="evenodd" />
    </mask>
  </defs>
  <g transform="matrix(1 0 0 1 -198 -773 )">
    <path d="M 0 12.9  L 12.899999999999999 0  L 1557.1000000000001 0  L 1570 12.9  L 1570 73.1  L 1557.1000000000001 86  L 12.899999999999999 86  L 0 73.1  L 0 12.9  Z " fill-rule="nonzero" fill="rgba(255, 255, 255, 1)" stroke="none" transform="matrix(1 0 0 1 198 773 )" class="fill" />
    <path d="M 0 12.9  L 12.899999999999999 0  L 1557.1000000000001 0  L 1570 12.9  L 1570 73.1  L 1557.1000000000001 86  L 12.899999999999999 86  L 0 73.1  L 0 12.9  Z " stroke-width="2" stroke-dasharray="0" stroke="rgba(121, 121, 121, 1)" fill="none" transform="matrix(1 0 0 1 198 773 )" class="stroke" mask="url(#Clip257)" />
  </g>
</svg>