<?xml version="1.0" encoding="utf-8"?>
<svg version="1.1" xmlns:xlink="http://www.w3.org/1999/xlink" width="595px" height="32px" xmlns="http://www.w3.org/2000/svg">
  <defs>
    <pattern id="BGPattern" patternUnits="userSpaceOnUse" alignment="0 0" imageRepeat="None" />
    <mask fill="white" id="Clip54">
      <path d="M 0 28  L 0 4  C 0 1.7599999999999998  1.76 0  4 0  L 591 0  C 593.24 0  595 1.7599999999999998  595 4  L 595 28  C 595 30.240000000000002  593.24 32  591 32  L 4 32  C 1.76 32  0 30.240000000000002  0 28  Z " fill-rule="evenodd" />
    </mask>
  </defs>
  <g transform="matrix(1 0 0 1 -591 -82 )">
    <path d="M 0 28  L 0 4  C 0 1.7599999999999998  1.76 0  4 0  L 591 0  C 593.24 0  595 1.7599999999999998  595 4  L 595 28  C 595 30.240000000000002  593.24 32  591 32  L 4 32  C 1.76 32  0 30.240000000000002  0 28  Z " fill-rule="nonzero" fill="rgba(0, 0, 0, 0.6470588235294118)" stroke="none" transform="matrix(1 0 0 1 591 82 )" class="fill" />
    <path d="M 0 28  L 0 4  C 0 1.7599999999999998  1.76 0  4 0  L 591 0  C 593.24 0  595 1.7599999999999998  595 4  L 595 28  C 595 30.240000000000002  593.24 32  591 32  L 4 32  C 1.76 32  0 30.240000000000002  0 28  Z " stroke-width="2" stroke-dasharray="0" stroke="rgba(255, 255, 255, 0)" fill="none" transform="matrix(1 0 0 1 591 82 )" class="stroke" mask="url(#Clip54)" />
  </g>
</svg>