<svg class="icon" viewBox="0 0 1024 1024" version="1.1" xmlns="http://www.w3.org/2000/svg" p-id="1422" height="128" width="128"><path d="M768 128h170.666667a85.333333 85.333333 0 0 1 85.333333 85.333333v725.333334a85.333333 85.333333 0 0 1-85.333333 85.333333H85.333333a85.333333 85.333333 0 0 1-85.333333-85.333333V213.333333a85.333333 85.333333 0 0 1 85.333333-85.333333h170.666667V42.666667a42.666667 42.666667 0 1 1 85.333333 0v85.333333h341.333334V42.666667a42.666667 42.666667 0 0 1 85.333333 0v85.333333z m0 85.333333v85.333334a42.666667 42.666667 0 0 1-85.333333 0V213.333333H341.333333v85.333334a42.666667 42.666667 0 1 1-85.333333 0V213.333333H85.333333v725.333334h853.333334V213.333333h-170.666667zM85.333333 512h853.333334v85.333333H85.333333v-85.333333z" fill="#333333" p-id="1423"></path></svg>