<?xml version="1.0" encoding="utf-8"?>
<svg version="1.1" xmlns:xlink="http://www.w3.org/1999/xlink" width="363px" height="184px" xmlns="http://www.w3.org/2000/svg">
  <defs>
    <pattern id="BGPattern" patternUnits="userSpaceOnUse" alignment="0 0" imageRepeat="None" />
    <mask fill="white" id="Clip49">
      <path d="M 0 182  L 0 2  C 0 0.8799999999999998  0.8799999999999999 0  2 0  L 361 0  C 362.12 0  363 0.8799999999999998  363 2  L 363 182  C 363 183.12  362.12 184  361 184  L 2 184  C 0.8799999999999999 184  0 183.12  0 182  Z " fill-rule="evenodd" />
    </mask>
  </defs>
  <g transform="matrix(1 0 0 1 -329 -2345 )">
    <path d="M 0 182  L 0 2  C 0 0.8799999999999998  0.8799999999999999 0  2 0  L 361 0  C 362.12 0  363 0.8799999999999998  363 2  L 363 182  C 363 183.12  362.12 184  361 184  L 2 184  C 0.8799999999999999 184  0 183.12  0 182  Z " fill-rule="nonzero" fill="rgba(255, 255, 255, 0)" stroke="none" transform="matrix(1 0 0 1 329 2345 )" class="fill" />
    <path d="M 0 182  L 0 2  C 0 0.8799999999999998  0.8799999999999999 0  2 0  L 361 0  C 362.12 0  363 0.8799999999999998  363 2  L 363 182  C 363 183.12  362.12 184  361 184  L 2 184  C 0.8799999999999999 184  0 183.12  0 182  Z " stroke-width="2" stroke-dasharray="9,4" stroke="rgba(233, 233, 233, 1)" fill="none" transform="matrix(1 0 0 1 329 2345 )" class="stroke" mask="url(#Clip49)" />
  </g>
</svg>