<?xml version="1.0" encoding="utf-8"?>
<svg version="1.1" xmlns:xlink="http://www.w3.org/1999/xlink" width="363px" height="184px" xmlns="http://www.w3.org/2000/svg">
  <defs>
    <pattern id="BGPattern" patternUnits="userSpaceOnUse" alignment="0 0" imageRepeat="None" />
    <mask fill="white" id="Clip50">
      <path d="M 0 180  L 0 4  C 0 1.7599999999999996  1.7599999999999998 0  4 0  L 359 0  C 361.24 0  363 1.7599999999999996  363 4  L 363 180  C 363 182.24  361.24 184  359 184  L 4 184  C 1.7599999999999998 184  0 182.24  0 180  Z " fill-rule="evenodd" />
    </mask>
  </defs>
  <g transform="matrix(1 0 0 1 -329 -2345 )">
    <path d="M 0 180  L 0 4  C 0 1.7599999999999996  1.7599999999999998 0  4 0  L 359 0  C 361.24 0  363 1.7599999999999996  363 4  L 363 180  C 363 182.24  361.24 184  359 184  L 4 184  C 1.7599999999999998 184  0 182.24  0 180  Z " fill-rule="nonzero" fill="rgba(255, 255, 255, 0)" stroke="none" transform="matrix(1 0 0 1 329 2345 )" class="fill" />
    <path d="M 0 180  L 0 4  C 0 1.7599999999999996  1.7599999999999998 0  4 0  L 359 0  C 361.24 0  363 1.7599999999999996  363 4  L 363 180  C 363 182.24  361.24 184  359 184  L 4 184  C 1.7599999999999998 184  0 182.24  0 180  Z " stroke-width="2" stroke-dasharray="9,4" stroke="rgba(217, 217, 217, 1)" fill="none" transform="matrix(1 0 0 1 329 2345 )" class="stroke" mask="url(#Clip50)" />
  </g>
</svg>