<?xml version="1.0" encoding="utf-8"?>
<svg version="1.1" xmlns:xlink="http://www.w3.org/1999/xlink" width="13px" height="13px" viewBox="225 286.5 13 13" xmlns="http://www.w3.org/2000/svg">
  <path d="M 231.5 286.5  C 235.14 286.5  238 289.36  238 293  C 238 296.64  235.14 299.5  231.5 299.5  C 227.86 299.5  225 296.64  225 293  C 225 289.36  227.86 286.5  231.5 286.5  Z " fill-rule="nonzero" fill="rgba(240, 240, 240, 1)" stroke="none" class="fill" />
  <path d="M 231.5 287  C 234.86 287  237.5 289.64  237.5 293  C 237.5 296.36  234.86 299  231.5 299  C 228.14 299  225.5 296.36  225.5 293  C 225.5 289.64  228.14 287  231.5 287  Z " stroke-width="1" stroke-dasharray="0" stroke="rgba(16, 142, 233, 0.9098039215686274)" fill="none" class="stroke" stroke-dashoffset="0.5" />
  <path d="M 231.5 296.25  C 229.68 296.25  228.25 294.82  228.25 293  C 228.25 291.18  229.68 289.75  231.5 289.75  C 233.32 289.75  234.75 291.18  234.75 293  C 234.75 294.82  233.32 296.25  231.5 296.25  " fill-rule="nonzero" fill="rgba(16, 142, 233, 0.9098039215686274)" stroke="none" class="stroke btn_check" />
</svg>