<svg class="icon" viewBox="0 0 1024 1024" version="1.1" xmlns="http://www.w3.org/2000/svg" p-id="748" height="128" width="128"><path d="M513.522758 718.497522c-114.367463 0-207.480568-93.074554-207.480568-207.480568s93.074554-207.480568 207.480568-207.480568 207.480568 93.074554 207.480568 207.480568-93.074554 207.480568-207.480568 207.480568z m0-369.972317a162.504599 162.504599 0 1 0 162.504599 162.504599 162.684503 162.684503 0 0 0-162.504599-162.504599zM610.336743 1024h-196.609234a26.792827 26.792827 0 0 1-26.767127-26.767126v-64.405587a44.629011 44.629011 0 0 0-27.550993-41.7891c-3.019815-1.285028-6.091031-2.570055-9.123696-3.855083a44.718963 44.718963 0 0 0-49.345063 9.612007l-43.099828 42.495865a26.792827 26.792827 0 0 1-37.844065-0.269856l-138.076223-140.068016a26.792827 26.792827 0 0 1 0.269856-37.844065l42.919924-42.315961a44.975968 44.975968 0 0 0 10.113168-49.640619q-0.860969-2.056044-1.696237-4.124939a44.975968 44.975968 0 0 0-41.943303-27.975052H26.792827A26.792827 26.792827 0 0 1 0.025701 610.285341v-196.609233a26.792827 26.792827 0 0 1 26.767126-26.767127h63.968677a44.975968 44.975968 0 0 0 42.058956-28.270608c1.721937-4.304843 3.546676-8.648236 5.422817-12.850277a45.091621 45.091621 0 0 0-9.26505-50.116079l-43.20263-43.819444a26.767126 26.767126 0 0 1 0.269856-37.844065l140.068016-138.076223a26.767126 26.767126 0 0 1 37.844065 0.269856l44.757514 45.400027a44.847466 44.847466 0 0 0 49.152308 10.036067l0.860969-0.346958a45.232974 45.232974 0 0 0 28.270608-42.046105V26.767126A26.792827 26.792827 0 0 1 413.76606 0h196.609233a26.792827 26.792827 0 0 1 26.767127 26.767126v61.308671a45.117322 45.117322 0 0 0 28.463363 42.136057c3.790832 1.516333 7.607364 3.109767 11.346794 4.728902a45.091621 45.091621 0 0 0 49.859074-9.316451l46.428049-45.785536a26.587223 26.587223 0 0 1 18.787105-7.710166h0.192754a26.587223 26.587223 0 0 1 18.864206 7.967172l138.076223 140.068016a26.792827 26.792827 0 0 1-0.269855 37.844065l-46.595104 45.939739a44.975968 44.975968 0 0 0-10.190269 49.447865q1.143675 2.737109 2.235948 5.474218a44.860316 44.860316 0 0 0 41.994704 28.103555h60.923162a26.792827 26.792827 0 0 1 26.715725 26.702875v196.609233a26.792827 26.792827 0 0 1-26.767126 26.767127h-61.681328a44.757514 44.757514 0 0 0-41.866202 27.756597q-1.516333 3.765131-3.109767 7.478862a44.821765 44.821765 0 0 0 9.650558 49.22941l45.05307 45.695584a26.792827 26.792827 0 0 1-0.269855 37.844064l-140.068017 138.076224a26.792827 26.792827 0 0 1-37.844064-0.269856l-43.690941-44.294904a45.258675 45.258675 0 0 0-49.486416-10.190269c-2.968414 1.285028-6.001079 2.570055-8.995194 3.700879-16.70536 6.617893-27.8594 23.464605-27.859399 41.917603v63.197661a26.792827 26.792827 0 0 1-26.702875 26.805677z m-178.451793-44.975968h160.2301v-44.975969c0-37.265802 22.076775-70.13681 56.232811-83.719553 2.660007-1.053723 5.358565-2.158846 8.005722-3.289671a89.412225 89.412225 0 0 1 99.114185 19.995031l30.840664 31.316124 114.136157-112.504172-32.267044-32.729655a89.63068 89.63068 0 0 1-18.967009-98.484521q1.41353-3.315371 2.77566-6.656443a89.540728 89.540728 0 0 1 83.526799-55.860153h43.485336V431.88495h-42.71432a89.61783 89.61783 0 0 1-83.758103-56.374164q-0.976621-2.454403-1.991793-4.883105a89.707782 89.707782 0 0 1 20.162084-98.792928l33.616324-33.153713-112.504173-114.097607-33.410719 32.99951a89.874835 89.874835 0 0 1-99.37119 18.54295c-3.328222-1.452081-6.733545-2.865612-10.100318-4.214891a89.861985 89.861985 0 0 1-56.811073-83.835205V44.975968H431.88495v44.256353a90.029039 90.029039 0 0 1-56.19426 83.655302l-0.809568 0.334107a89.656381 89.656381 0 0 1-98.253215-20.072132l-31.971489-32.434099-114.097607 112.568424 30.416605 30.840664a89.823434 89.823434 0 0 1 18.401597 99.82095c-1.670536 3.777981-3.289671 7.633064-4.818854 11.462447a89.759183 89.759183 0 0 1-83.809505 56.541217H44.975968v160.165849h46.543703a89.746333 89.746333 0 0 1 83.61675 56.040057q0.745316 1.83759 1.516333 3.675179a89.797734 89.797734 0 0 1-20.072132 99.037083l-29.941145 29.555636 112.504173 114.097607 30.121048-29.70984a89.476477 89.476477 0 0 1 98.844329-18.838506c2.698558 1.169375 5.422817 2.31305 8.108524 3.405324 33.783377 13.711245 55.603147 46.466601 55.603147 83.462547z" p-id="749"></path></svg>